PathFileType	4	(X/Y/Z)	./resultDataOpenSim/trcMotMarkerGrf/sub06/qtm-04-08.trc
DataRate	CameraRate	NumFrames	NumMarkers	Units	OrigDataRate	OrigDataStartFrame	OrigNumFrames
250.000000	250.000000	12	24	m	250.000000	399	531
Frame#	Time	L.Toe.Tip			R.Toe.Tip			L.Ankle.Lat			R.Ankle.Lat			L.Ankle.Med			R.Ankle.Med			L.Heel			R.Heel			L.Knee.Lat			R.Knee.Lat			L.Knee.Med			R.Knee.Med			L.Thigh.Upper			R.Thigh.Upper			L.ASIS			R.ASIS			V.Sacral			L.Acromium			R.Acromium			C7			L.Elbow			R.Elbow			L.Wrist.Lat			R.Wrist.Lat
		X1	Y1	Z1	X2	Y2	Z2	X3	Y3	Z3	X4	Y4	Z4	X5	Y5	Z5	X6	Y6	Z6	X7	Y7	Z7	X8	Y8	Z8	X9	Y9	Z9	X10	Y10	Z10	X11	Y11	Z11	X12	Y12	Z12	X13	Y13	Z13	X14	Y14	Z14	X15	Y15	Z15	X16	Y16	Z16	X17	Y17	Z17	X18	Y18	Z18	X19	Y19	Z19	X20	Y20	Z20	X21	Y21	Z21	X22	Y22	Z22	X23	Y23	Z23	X24	Y24	Z24

399	1.592	1.3204038	0.086625943	-0.0695517	0.89520395	0.03532952	0.10094463	1.1981656	0.11309188	-0.080492378	0.7599094	0.063293554	0.12400495	1.2104183	0.12764227	0.0037838476	0.78088906	0.083842204	0.036998721	1.1301086	0.079319431	-0.031348906	0.70356574	0.043421996	0.064741191	1.2449624	0.49096477	-0.082376373	0.89836703	0.42775724	0.16155724	1.2348424	0.47845031	0.036753918	0.86370316	0.43171186	0.033448723	1.0201653	0.81650545	-0.12223349	0.94052526	0.79284935	0.22841145	1.0771518	0.85887035	-0.062763383	1.0663498	0.84346202	0.18318761	0.8881838	0.92048285	0.055594392	1.0030545	1.3293967	-0.123144	1.0239335	1.3242907	0.23807033	0.93565077	1.3613849	0.062402559	0.88284971	1.039496	-0.16993449	1.0056428	1.0185952	0.35993608	0.96144768	0.81715222	-0.23393766	1.245493	0.94727948	0.33221144
400	1.596	1.3384388	0.088188912	-0.068903039	0.89528421	0.03527718	0.10094587	1.2154566	0.11039426	-0.080188443	0.7601219	0.06360095	0.12381376	1.2269972	0.12518633	0.0041711197	0.7813584	0.084009566	0.036816136	1.1483799	0.074420111	-0.031306963	0.70377033	0.043990843	0.064443426	1.2504334	0.48930313	-0.081815536	0.90118105	0.42709628	0.16150337	1.240415	0.4766606	0.037211046	0.86701957	0.43108195	0.033335771	1.0265286	0.81507268	-0.12227635	0.946763	0.79129081	0.2278894	1.0834149	0.85712431	-0.062791638	1.0717686	0.84196541	0.18314612	0.89402683	0.91918441	0.055159978	1.0084554	1.3278143	-0.12345539	1.0298611	1.3227768	0.23784393	0.94131183	1.359975	0.062161467	0.88744687	1.038334	-0.16969912	1.0128019	1.0171161	0.36015709	0.96448128	0.81580114	-0.23470808	1.252868	0.94732452	0.33080505
401	1.6	1.3562812	0.089992995	-0.068203305	0.89536169	0.035228993	0.10093757	1.232722	0.10802775	-0.079963302	0.76034171	0.06395419	0.12360635	1.2434912	0.12306666	0.0043421635	0.78186984	0.084201065	0.036597317	1.1666289	0.069852855	-0.031424598	0.70399036	0.044621231	0.064124973	1.2557916	0.48752709	-0.081281416	0.90404569	0.42644593	0.16142602	1.2459265	0.47476738	0.037666346	0.87039219	0.43049772	0.033183989	1.0329091	0.81358289	-0.12229716	0.95276044	0.78980129	0.22742922	1.0897221	0.85535865	-0.062797977	1.0770496	0.84021327	0.18348252	0.89984704	0.91784633	0.05481177	1.0138643	1.3262391	-0.12377296	1.0357936	1.3212687	0.23758469	0.94697196	1.3585209	0.061902682	0.89212812	1.0371527	-0.16946658	1.0199413	1.0156425	0.36032456	0.96758709	0.81443227	-0.23546114	1.2601933	0.94728972	0.32937419
402	1.604	1.3739026	0.091997767	-0.067440793	0.89543849	0.035187544	0.10092237	1.2499161	0.10601213	-0.07980125	0.76058407	0.064344073	0.12338521	1.2598207	0.12120061	0.0044441614	0.78243338	0.084417322	0.036335275	1.1848337	0.065664931	-0.031624812	0.70421533	0.045323235	0.06379906	1.261056	0.48564497	-0.080769602	0.90695628	0.42580785	0.16132213	1.2513799	0.47277465	0.038125434	0.87380905	0.42995388	0.032992021	1.0393194	0.81204911	-0.12229705	0.958342	0.78842237	0.22705839	1.0960706	0.85358592	-0.062793919	1.0822792	0.83825813	0.1840987	0.90568001	0.91648774	0.054378029	1.0192847	1.3246652	-0.12409597	1.041726	1.3197699	0.23729387	0.95261707	1.3570248	0.061656191	0.89689629	1.0359561	-0.169232	1.0271253	1.0141982	0.36048451	0.97077683	0.81305363	-0.23619539	1.2674625	0.947171	0.32793106
403	1.608	1.3912851	0.094164511	-0.066622469	0.89551314	0.035156072	0.10090438	1.2670001	0.10435516	-0.079692874	0.76085492	0.064768544	0.12314694	1.2758625	0.11946932	0.0046339668	0.78302466	0.084673814	0.036052984	1.2029641	0.061858604	-0.031722183	0.70444597	0.046094504	0.063461187	1.2662408	0.48366659	-0.080275382	0.90991481	0.42517964	0.16119611	1.2567532	0.47068401	0.038598574	0.87724848	0.4294415	0.032782593	1.0457688	0.81047753	-0.12227601	0.96380526	0.78707652	0.22670654	1.102476	0.85181889	-0.062795444	1.0876407	0.83630944	0.18465794	0.91159004	0.91514348	0.053764407	1.0247207	1.3230899	-0.12442514	1.0476558	1.318283	0.23697255	0.95825529	1.3555052	0.061421847	0.9017552	1.0347479	-0.16899617	1.0343381	1.0127845	0.36063799	0.97405926	0.81167183	-0.23690837	1.2746601	0.94696047	0.32649717
404	1.612	1.4084095	0.096461987	-0.065773637	0.89558003	0.035133393	0.10088758	1.2839419	0.10304613	-0.079631794	0.76113706	0.065238882	0.12288585	1.2914386	0.11779825	0.0048966504	0.78359751	0.084995537	0.035799548	1.2209662	0.058422314	-0.031612272	0.70469631	0.046926796	0.063089392	1.2713608	0.48159982	-0.079794085	0.91292518	0.42456053	0.1610568	1.2620341	0.46850154	0.039104453	0.8807025	0.42895207	0.032575959	1.0522566	0.80885639	-0.12223627	0.96957049	0.78566509	0.22628083	1.1089669	0.85006345	-0.062812534	1.0932051	0.83449726	0.18496402	0.91759784	0.91384185	0.053003913	1.0301718	1.3215183	-0.12476532	1.0535824	1.316809	0.23662379	0.96390341	1.3539863	0.061185398	0.9067062	1.0335339	-0.16876647	1.0415058	1.0113855	0.3607507	0.9774294	0.81028672	-0.23759816	1.2817906	0.94664971	0.3250773
405	1.616	1.425244	0.098882757	-0.064927805	0.89563845	0.035110234	0.10086962	1.300702	0.10206749	-0.079609704	0.76140045	0.065768288	0.12259951	1.3064566	0.11623433	0.0050762776	0.78412857	0.085398366	0.035609145	1.2387633	0.055396921	-0.031492145	0.70498279	0.047816427	0.062662358	1.2764301	0.47945217	-0.079321365	0.91598728	0.42395633	0.16091169	1.2672364	0.46624006	0.039662448	0.88419632	0.42847698	0.032363514	1.0587761	0.80717013	-0.12218781	0.97578166	0.78416849	0.22576087	1.1155394	0.84831953	-0.062839085	1.0988937	0.83279949	0.18507583	0.9236676	0.91257373	0.052225659	1.0356368	1.3199575	-0.12512193	1.0595031	1.3153477	0.23625198	0.96957153	1.3524715	0.060931621	0.91174819	1.0323168	-0.16855346	1.0485833	1.0099905	0.36079643	0.98087652	0.80889167	-0.23826269	1.2888821	0.94623252	0.32365604
406	1.62	1.44174	0.10145995	-0.064124533	0.89569464	0.035079973	0.10084355	1.3172192	0.10140798	-0.07961948	0.76163128	0.066361322	0.12229168	1.3211206	0.11495875	0.0050755281	0.78465083	0.085875448	0.035458927	1.2562853	0.052858808	-0.031758779	0.70530535	0.04877081	0.062189138	1.2814605	0.47723728	-0.078850274	0.91909997	0.42337515	0.16076815	1.2723671	0.46391148	0.040281484	0.88778918	0.4280093	0.032107655	1.0653207	0.80542168	-0.1221414	0.98227627	0.78263705	0.2252037	1.1221443	0.84658574	-0.062851418	1.1046254	0.83115661	0.18511345	0.92977305	0.91129733	0.051554162	1.0411189	1.3184109	-0.12549696	1.0654173	1.313898	0.23586169	0.97526724	1.3509412	0.060641517	0.91688129	1.0310923	-0.16836557	1.0555793	1.0086018	0.36077454	0.98439875	0.80748142	-0.23889999	1.2959553	0.94571181	0.3222204
407	1.624	1.4578388	0.10426702	-0.063413881	0.89574517	0.035058404	0.10081566	1.3334162	0.10105595	-0.079660331	0.76184387	0.067016524	0.12197204	1.3357995	0.11415941	0.0049719159	0.78523305	0.086402673	0.035283992	1.2735063	0.050809525	-0.032573004	0.70564881	0.04980751	0.061707386	1.2864657	0.47497439	-0.078369325	0.92226507	0.42281755	0.16063527	1.2774127	0.46151913	0.040952903	0.8915381	0.42754726	0.031775816	1.0718865	0.80363276	-0.1220986	0.98876245	0.78113659	0.2246859	1.128741	0.84486185	-0.062824288	1.110392	0.82954047	0.18513858	0.93595195	0.90997902	0.051064812	1.0466266	1.316876	-0.12588942	1.0713299	1.3124587	0.23545666	0.98099797	1.3493865	0.060299733	0.92210779	1.0298553	-0.16820271	1.0625466	1.0072389	0.36072255	0.98800126	0.80605717	-0.23950991	1.3029913	0.9451017	0.32078391
408	1.628	1.473487	0.10737433	-0.062835947	0.89577097	0.035088903	0.10080922	1.3492174	0.10098797	-0.079729071	0.76207186	0.067734321	0.12165258	1.3505032	0.11387552	0.0048681009	0.7859168	0.086962692	0.035046367	1.2904229	0.04913791	-0.033672485	0.70600872	0.050943004	0.061242288	1.2914712	0.47268023	-0.077866532	0.92548487	0.422276	0.16051639	1.2823751	0.45905933	0.041656951	0.89544456	0.42709884	0.03138238	1.0784772	0.8018222	-0.12205601	0.99501289	0.77971125	0.22424767	1.1353325	0.84315073	-0.062749868	1.1162148	0.82794601	0.18516293	0.94228274	0.90861525	0.050787174	1.05217	1.3153484	-0.12629769	1.0772462	1.3110298	0.23503897	0.98676406	1.34783	0.059911304	0.92742694	1.0286055	-0.16805717	1.0695746	1.0059405	0.36072658	0.99168658	0.80462421	-0.24009557	1.309941	0.94441541	0.3193864
409	1.632	1.4886443	0.11076135	-0.062371505	0.89576243	0.035209001	0.10083799	1.3645636	0.10116891	-0.079800728	0.76235089	0.068518058	0.12134658	1.3648619	0.11400786	0.0047702739	0.78668579	0.087561767	0.034771986	1.3069699	0.047722186	-0.034685727	0.70639499	0.052185329	0.060800039	1.2965175	0.47036934	-0.077333311	0.92876276	0.42174453	0.16040213	1.2873062	0.45653093	0.042378745	0.8994601	0.4266779	0.030979666	1.0851048	0.79999469	-0.12201198	1.00098	0.77837236	0.22387919	1.1419433	0.84146021	-0.062640225	1.1220921	0.82637597	0.18517883	0.94879242	0.90722547	0.050666519	1.0577582	1.3138296	-0.12672176	1.0831699	1.3096141	0.23461026	0.99256479	1.3462978	0.059494201	0.93283317	1.0273471	-0.16792337	1.0767379	1.0047403	0.36087065	0.99545392	0.80318714	-0.24066025	1.3167754	0.94365323	0.31806096
410	1.636	1.5032666	0.11428442	-0.061928499	0.89574312	0.035391008	0.10088689	1.3794123	0.10155816	-0.079823767	0.76269744	0.069370541	0.1210708	1.3786999	0.11442025	0.004679486	0.78750031	0.088217847	0.034513549	1.3230014	0.046524956	-0.035457301	0.70680325	0.053540539	0.060403886	1.3016469	0.46806456	-0.076771214	0.93211001	0.42122688	0.16027729	1.2922698	0.45394316	0.043112363	0.90355113	0.42629066	0.030604601	1.0917801	0.79814913	-0.12196905	1.0067995	0.7771032	0.2235458	1.1485903	0.83979944	-0.062514257	1.1280024	0.82483695	0.18518025	0.95538719	0.9058399	0.050553032	1.0633999	1.3123266	-0.12716476	1.0891072	1.3082162	0.23417248	0.99840737	1.3447962	0.059058439	0.93832125	1.026085	-0.16780252	1.0840009	1.0036235	0.36112796	0.99930308	0.80174777	-0.24120293	1.3235038	0.9428107	0.3168032
